<svg version="1.1" xmlns="http://www.w3.org/2000/svg" xmlns:xlink="http://www.w3.org/1999/xlink" width="134.71474" height="258.65286" viewBox="0,0,134.71474,258.65286"><g transform="translate(-177.0532,-57.01959)"><g data-paper-data="{&quot;isPaintingLayer&quot;:true}" fill-rule="nonzero" stroke-linejoin="miter" stroke-miterlimit="10" stroke-dasharray="" stroke-dashoffset="0" style="mix-blend-mode: normal"><g stroke="none" stroke-width="1" stroke-linecap="butt"><path d="M177.05321,308.04627l3.15099,-9.21798l14.24599,4.05611l8.59785,4.44151l5.59775,8.34656z" fill="#ebebeb"/><path d="M180.45894,300.32998l12.75833,-50.72243l14.78303,-58.25771l28.28751,6.82837l-20.91721,58.52582l-16.44216,48.08435z" fill="#00bcbd"/></g><g stroke="none" stroke-width="1" stroke-linecap="butt"><path d="M281.56581,310.04917l-2.74619,-9.34657l13.97518,-4.9086l9.58486,-1.33437l9.38828,3.58613z" fill="#ebebeb"/><path d="M277.75689,302.63148l-22.05293,-45.46997l-28.84633,-55.25259l27.87887,-11.08008l23.66014,57.6366l18.50373,46.55772z" fill="#00bcbd"/></g><g stroke="none" stroke-width="1" stroke-linecap="butt"><path d="M239.69528,163.96161c-2.94096,-1.32316 -6.66827,-5.58428 -6.66827,-5.58428c0,0 17.48164,-44.26751 24.34419,-42.07767c12.52947,3.65134 -11.51823,47.54893 -11.51823,47.54893c0,0 -3.30214,1.38416 -6.1577,0.11303z" fill="#9e6b30"/><path d="M236.91775,140.84161c0,0 9.42968,-32.77943 20.39544,-28.67553c9.66609,3.54637 3.35992,36.00376 3.35992,36.00376z" fill="#62a7a7"/></g><g fill="#9e6b30" stroke="none" stroke-width="1" stroke-linecap="butt"><g data-paper-data="{&quot;origPos&quot;:null}"><path d="M247.40595,153.08579l-8.2,2.4l-8.8,-27.1c0,0 3.1,-4.2 6.7,-3.9c2.7,0.2 7.3,1 7.3,1z" data-paper-data="{&quot;origPos&quot;:null}"/></g><path d="M243.9217,175.65865c-1.88348,0.26926 -1.11285,-8.74994 -2.87745,-8.9118c-1.35281,-0.14109 0.25922,5.45278 -0.17478,6.35369c-0.53211,0.92025 -3.27353,-0.57795 -3.27353,-0.57795c0,0 -2.53514,-5.10618 -2.95909,-7.77456c-1.06202,-5.90611 4.60277,-11.81289 4.60277,-11.81289l7.27682,-0.31292c0,0 4.39499,6.2685 4.53963,10.6227c0.08663,4.05987 -3.00789,9.56204 -3.00789,9.56204c0,0 -2.30244,2.79799 -4.12649,2.85169z" data-paper-data="{&quot;origPos&quot;:null,&quot;index&quot;:null,&quot;origRot&quot;:0}"/></g><path d="M201.50002,193.65002l0.2,-76.3c0,0 15.8,-7.9 29.3,-8.1c13.5,-0.2 25.3,4.9 27.9,6.2c2.4,1.2 2.6,80.4 2.6,80.4c0,0 -17.8,2.8 -29.8,2.7c-12.3,-0.2 -30.2,-4.9 -30.2,-4.9z" fill="#a7d2fe" stroke="none" stroke-width="1" stroke-linecap="butt"/><g fill="#9e6b30" stroke="none" stroke-width="1" stroke-linecap="butt"><path d="M223,99.45001l15.2,3.4l-0.1,9.1c0,0 4.9,0.9 4.8,3.7c-0.1,4.5 -18.9,6.9 -22.8,0c-1.5,-3.4 2,-4.6 2,-4.6z" data-paper-data="{&quot;origPos&quot;:null}"/><path d="M218.4,88.35001c0.8,2.4 0.3,4.7 -1,5.1c-1.4,0.5 -3.2,-1 -4,-3.4c-0.8,-2.4 -0.3,-4.7 1,-5.1c1.4,-0.5 3.2,1.1 4,3.4z" data-paper-data="{&quot;origPos&quot;:null}"/><path d="M249.9,86.15001c0,12.8 -7.9,19.6 -14.7,19.9c-11.8,0.2 -19.4,-9.5 -19.4,-22.3c0,-12.8 2.2,-22.4 17.2,-23.1c11.4,-0.6 18.8625,11.5 16.8625,25.2z" data-paper-data="{&quot;origPos&quot;:null}"/></g><path d="M238.30002,98.85002c0,0.7 -2,2.2 -3.7,2.2c-1.7,0 -3.5,-1.9 -3.5,-2.7c0,-0.7 2.2,0 4,0c1.8,0 3.2,-0.2 3.2,0.5z" fill="#000000" stroke="none" stroke-width="1" stroke-linecap="butt"/><path d="M236.40002,88.65002c0,0 1.5,1 1.4,2.5c0,0.7 -2.5,2.1 -2.5,2.1" data-paper-data="{&quot;origPos&quot;:null}" fill="none" stroke="#000000" stroke-width="1.46" stroke-linecap="round"/><path d="M217.00002,70.85002" fill="none" stroke="#000000" stroke-width="4.38" stroke-linecap="round"/><g stroke="none" stroke-width="1" stroke-linecap="butt"><path d="M210.47271,172.73634c-2.33294,0.92054 -6.62534,0.7968 -6.62534,0.7968c0,0 -17.23807,-47.90166 -4.26506,-53.92503c9.92526,-5.19799 16.10935,49.23433 16.10935,49.23433c0,0 -2.88601,2.97337 -5.21895,3.89391z" fill="#9e6b30"/><path d="M193.59769,152.1632c0,0 -2.52469,-31.05778 4.11316,-33.41978c15.69842,-5.68854 19.74007,31.41894 19.74007,31.41894z" fill="#62a7a7"/></g><g data-paper-data="{&quot;origPos&quot;:null}"><path d="M224.20002,79.65002c0,0 2.9,-0.8 4.4,-0.8c1.7,-0.1 3.7,0.8 3.7,0.8" fill="none" stroke="#000000" stroke-width="1.46" stroke-linecap="round"/><g><path d="M224.10002,83.95002c0,0 2.2,-1.9 4.5,-1.7c2.5,0.2 2.9,1.5 2.9,1.5" fill="none" stroke="#000000" stroke-width="1.46" stroke-linecap="round"/><path d="M227.40002,84.75002c0,-1.2 0.9,-2.2 2.1,-2.2c1.2,0 2.1,1 2.1,2.2c0,1.2 -0.9,2.2 -2.1,2.2c-1.1,0 -2.1,-1 -2.1,-2.2z" fill="#000000" stroke="none" stroke-width="1" stroke-linecap="butt"/></g></g><g data-paper-data="{&quot;origPos&quot;:null}"><path d="M239.60002,79.55002c0,0 2.3,-0.8 4,-0.8c1.5,0.1 3.2,0.5 3.2,0.5" fill="none" stroke="#000000" stroke-width="1.46" stroke-linecap="round"/><g><path d="M239.60002,83.65002c0,0 0.5,-1.3 2.9,-1.5c2.3,-0.2 4.5,0.7 4.5,0.7" fill="none" stroke="#000000" stroke-width="1.46" stroke-linecap="round"/><path d="M244.50002,86.65002c-1.2,0 -2.1,-1 -2.1,-2.2c0,-1.2 0.9,-2.2 2.1,-2.2c1.2,0 2.1,1 2.1,2.2c0,1.2 -0.9,2.2 -2.1,2.2z" fill="#000000" stroke="none" stroke-width="1" stroke-linecap="butt"/></g></g><g fill="#9e6b30" stroke="none" stroke-width="1" stroke-linecap="butt"><path d="M213.79599,193.77531l-11.69103,-25.19959c0,0 3.32411,-2.52791 5.33728,-3.70991c2.78567,-1.68524 7.43207,0.73776 7.43207,0.73776l6.72839,27.06028z"/><path d="M222.84235,210.78188c0,0 -5.52418,-3.05507 -7.58391,-6.55471c-2.16505,-3.78054 -1.71988,-11.42331 -1.71988,-11.42331l6.35553,-3.5577c0,0 7.92358,2.04865 10.12365,7.63163c1.04153,2.49303 1.5679,8.16956 1.5679,8.16956c0,0 -1.54509,2.71528 -2.48139,2.21195c-0.9363,-0.50333 -2.41071,-6.1448 -3.48754,-5.31386c-1.41626,1.065 3.97894,8.33355 2.23499,9.09422c-1.58011,0.91284 -5.00934,-0.25777 -5.00934,-0.25777z"/></g><path d="M241.7,70.75001c-2.5,-0.5 -15,-0.1 -17.3,1c-5.7,2.9 -6.6,14.4 -6.6,14.4l-2.6,-0.8c0,0 -3.5,-24.9 17.9,-24.7c11.4,-0.6 16.3,10.2 16.8,16.7c0,-0.1 -0.1,-5 -8.2,-6.6z" data-paper-data="{&quot;origPos&quot;:null}" fill="#4d2f15" stroke="none" stroke-width="1" stroke-linecap="butt"/><g data-paper-data="{&quot;origPos&quot;:null}" stroke="none" stroke-linecap="butt"><path d="M213.1154,88.69617c0.17573,2.06713 1.72225,3.57657 1.42977,3.65336c-0.21892,0.05748 -0.41881,0.10048 -0.64515,0.10048c-1.9,0 -2.2,-1.8 -2.2,-4c0,-2.3 1.02308,-3.94615 2.42308,-3.94615c1.4,0 -1.35397,0.11913 -1.0077,4.19231z" data-paper-data="{&quot;origPos&quot;:null}" fill="#c5c5c5" stroke-width="1"/><path d="M214.50002,88.75002c0,-0.8 0.7,-1.5 1.5,-1.5c0.8,0 1.5,0.7 1.5,1.5c0,0.8 -0.7,1.5 -1.5,1.5c-0.8,0 -1.5,-0.7 -1.5,-1.5z" data-paper-data="{&quot;origPos&quot;:null}" fill="#f2f2f2" stroke-width="1"/><path d="M217.27275,85.22729c0.7391,1.05988 -0.07179,3.45282 -1.00531,2.84416c-0.66052,-0.41684 -0.03726,-1.47202 -0.35833,-2.07143c-0.80346,-1.5 -2.44019,-0.15627 -2.72727,-1.31818c-0.18213,-0.73712 2.38641,-1.89881 4.09091,0.54545z" data-paper-data="{&quot;origPos&quot;:null,&quot;origRot&quot;:0}" fill="#f2f2f2" stroke-width="0"/></g><g data-paper-data="{&quot;origPos&quot;:null}" fill="#000000" stroke="none" stroke-width="1" stroke-linecap="butt"><path d="M229.70003,60.25003c0.8,3.8 -4.7251,1.73069 -9.3,4c-4.42605,2.19547 -6.78243,7.26762 -9.2,4.3c-2.06797,-2.53847 1.77564,-5.39346 5.63334,-7.96667c5.26837,-3.51418 12.41297,-2.48836 12.86666,-0.33333z" data-paper-data="{&quot;origPos&quot;:null}"/><path d="M231.30003,62.45003c0.8,3.8 -5.2,1.2 -10.4,6c-4.96903,4.5868 -5.93203,10.33847 -9.3,8.7c-2.46667,-1.2 1.62067,-7.42272 4.93334,-11.36667c5.42087,-6.4539 14.31297,-5.48836 14.76666,-3.33333z" data-paper-data="{&quot;origPos&quot;:null}"/><path d="M231.90003,65.05003c0.8,3.8 -6,2 -10.2,7.3c-4.2,5.3 -4.13203,10.33847 -7.5,8.7c-2.46667,-1.2 0.52067,-8.12273 3.83334,-12.06667c5.42087,-6.4539 13.41297,-6.08836 13.86666,-3.93333z" data-paper-data="{&quot;origPos&quot;:null}"/><path d="M234.20003,66.65003c1,4.4 -3.11528,1.89883 -7.1,4.8c-4.8443,3.52701 0.86797,10.53847 -3.1,11.7c-2.66667,1.2 -5.47933,-8.42272 -2.16666,-12.36667c5.42087,-6.4539 11.91297,-6.28836 12.36666,-4.13333z" data-paper-data="{&quot;origPos&quot;:null}"/></g><g data-paper-data="{&quot;origPos&quot;:null}" fill="#000000" stroke="none" stroke-width="1" stroke-linecap="butt"><path d="M249.79427,64.18559c-1.37912,2.37063 -4.19109,-1.52182 -9.07957,-2.23789c-5.05289,-0.74015 -9.36494,2.23921 -9.78169,-1.62166c-0.23635,-2.18955 6.11611,-4.53357 12.13676,-2.56965c7.99794,2.60891 6.7245,6.4292 6.7245,6.4292z" data-paper-data="{&quot;origPos&quot;:null,&quot;index&quot;:null,&quot;origRot&quot;:0}"/><path d="M245.6352,63.04456c4.95794,3.47953 10.74257,9.97107 8.64009,11.7329c-2.87071,2.40559 -5.79843,-4.54144 -11.73064,-7.7878c-6.20795,-3.39725 -8.46337,-0.63214 -8.84376,-3.30174c-0.38894,-2.72959 7.39685,-3.82781 11.93431,-0.64337z" data-paper-data="{&quot;origPos&quot;:null,&quot;index&quot;:null,&quot;origRot&quot;:0}"/><path d="M248.10345,69.4844c2.99156,4.74258 5.59908,12.87697 1.3657,12.77736c-3.20192,-0.07534 -1.19539,-2.29849 -3.93276,-8.22341c-2.83622,-6.13888 -12.18882,-4.43193 -11.27396,-8.20593c0.51882,-2.14029 8.61833,-2.96332 13.84102,3.65198z" data-paper-data="{&quot;origPos&quot;:null,&quot;index&quot;:null,&quot;origRot&quot;:0}"/></g></g></g></svg>